<svg class="accessibility-widget-button__icon" width="24" height="24" viewBox="0 0 24 24" xmlns="http://www.w3.org/2000/svg" fill="inherit" stroke="inherit"><path fill-rule="evenodd" clip-rule="evenodd" d="M12 21.6a9.6 9.6 0 1 0 0-19.2 9.6 9.6 0 0 0 0 19.2zm-.002-13.471c.592 0 1.071-.477 1.071-1.065S12.59 6 11.998 6s-1.072.476-1.072 1.064c0 .588.48 1.065 1.072 1.065zm.282 6.126a.292.292 0 0 0-.282-.21.295.295 0 0 0-.282.21l-.905 3.434a.43.43 0 0 1-.383.31.436.436 0 0 1-.462-.526l.683-4.57v-2.074a.542.542 0 0 0-.469-.536L7.57 9.9a.43.43 0 0 1-.37-.422.428.428 0 0 1 .433-.414h8.731a.435.435 0 0 1 .404.264.427.427 0 0 1-.336.588l-2.612.394a.552.552 0 0 0-.472.536v2.074l.675 4.553a.435.435 0 0 1-.29.505.436.436 0 0 1-.555-.288l-.897-3.434z"></path></svg>