<svg class="media-video-audio-toggle__icon" width="32" height="32" viewBox="0 0 32 32" xmlns="http://www.w3.org/2000/svg" fill="inherit" stroke="inherit"><path d="M3.646 4.354l24 24 .708-.708-24-24-.708.708zM3.5 11.5h4.747l1 1H4.5v7h5.288l5.712 4.998V20h1v6.702L9.412 20.5H3.5v-9zm20.636-6.036c4.84 4.84 5.654 12.18 2.443 17.862l-.736-.736c2.836-5.265 2.032-11.973-2.414-16.419l.707-.707zM19.724 9.99a8.5 8.5 0 0 1 2.095 8.576l-.812-.812a7.496 7.496 0 0 0-1.99-7.057l.707-.707zM16.5 5.332v7.915l-1-1v-4.78L12.893 9.64l-.71-.71L16.5 5.332z"></path></svg>